<?xml version="1.0" encoding="utf-8"?>
<!-- Generated by IcoMoon.io -->
<!DOCTYPE svg PUBLIC "-//W3C//DTD SVG 1.1//EN" "http://www.w3.org/Graphics/SVG/1.1/DTD/svg11.dtd">
<svg version="1.1" xmlns="http://www.w3.org/2000/svg" xmlns:xlink="http://www.w3.org/1999/xlink" width="272" height="32" viewBox="0 0 272 32">
<g transform="translate(0 0)">
	<path d="M31.317 9.82l-3.16-3.159c-0.775-0.775-2.043-2.043-2.818-2.818l-3.16-3.159c-0.775-0.775-2.155-0.911-3.067-0.304l-8.639 5.759c-0.912 0.608-1.257 1.907-0.767 2.887l2.203 4.405c0.067 0.135 0.145 0.278 0.231 0.427l-11.142 11.142-1 7h6v-2h4v-4h4v-4h4v-2.225c0.2 0.119 0.392 0.226 0.569 0.314l4.405 2.203c0.98 0.49 2.279 0.145 2.887-0.767l5.759-8.639c0.608-0.912 0.471-2.292-0.304-3.066zM4.707 26.707l-1.414-1.414 9.737-9.737 1.414 1.414-9.737 9.737zM28.657 13.243l-1.414 1.414c-0.389 0.389-1.025 0.389-1.414 0l-8.485-8.485c-0.389-0.389-0.389-1.025 0-1.414l1.414-1.414c0.389-0.389 1.025-0.389 1.414 0l8.485 8.485c0.389 0.389 0.389 1.025 0 1.414z" fill="#ffffff" />
</g>
<g transform="translate(48 0)">
	<path d="M23 14l-8 8-8-8h5v-12h6v12zM15 22h-15v8h30v-8h-15zM28 26h-4v-2h4v2z" fill="#ffffff" />
</g>
<g transform="translate(96 0)">
	<path d="M27.844 11.252c-0.101-4.022-3.389-7.252-7.433-7.252-2.369 0-4.477 1.109-5.839 2.835-0.764-0.987-1.959-1.624-3.303-1.624-2.307 0-4.176 1.871-4.176 4.179 0 0.201 0.015 0.399 0.043 0.592-0.351-0.063-0.711-0.098-1.080-0.098-3.344-0-6.054 2.712-6.054 6.058 0 3.346 2.71 6.058 6.054 6.058h3.118l6.828 6.828 6.828-6.828 3.734-0c3.004-0.006 5.438-2.444 5.438-5.451 0-2.565-1.771-4.716-4.156-5.296zM16 26l-6-6h4v-6h4v6h4l-6 6z" fill="#ffffff" />
</g>
<g transform="translate(144 0)">
	<path d="M26 14h-2v-6c0-4.418-3.582-8-8-8s-8 3.582-8 8v6h-2c-1.1 0-2 0.9-2 2v14c0 1.1 0.9 2 2 2h20c1.1 0 2-0.9 2-2v-14c0-1.1-0.9-2-2-2zM16 26c-1.105 0-2-0.895-2-2s0.895-2 2-2 2 0.895 2 2-0.895 2-2 2zM20 14h-8v-6c0-2.206 1.794-4 4-4s4 1.794 4 4v6z" fill="#ffffff" />
</g>
<g transform="translate(192 0)">
	<path d="M32 16c0 8.837-7.163 16-16 16s-16-7.163-16-16 7.163-16 16-16 16 7.163 16 16zM3 16c0 7.18 5.82 13 13 13s13-5.82 13-13-5.82-13-13-13-13 5.82-13 13zM17.414 6.586l8 8c0.781 0.781 0.781 2.047 0 2.828s-2.047 0.781-2.828 0l-4.586-4.586v11.172c0 1.105-0.895 2-2 2s-2-0.895-2-2v-11.172l-4.586 4.586c-0.781 0.781-2.047 0.781-2.829 0-0.391-0.391-0.586-0.902-0.586-1.414s0.195-1.024 0.586-1.414l8-8c0.781-0.781 2.047-0.781 2.828 0z" fill="#ffffff" />
</g>
<g transform="translate(240 0)">
<path d="M230.39,255.512c-5.879-5.881-13.548-8.875-21.256-9c29.804-44.402,25.106-105.25-14.105-144.465
		c-44.557-44.555-117.054-44.555-161.61,0c-44.558,44.557-44.558,117.059,0,161.613c39.212,39.213,100.059,43.908,144.463,14.105
		c0.124,7.705,3.117,15.377,8.998,21.256l79.443,79.445c12.017,12.016,31.495,12.016,43.512,0c12.018-12.018,12.018-31.494,0-43.512
		L230.39,255.512z M170.165,238.797c-30.845,30.848-81.039,30.848-111.884,0c-30.848-30.848-30.848-81.037,0-111.887
		c30.845-30.846,81.039-30.846,111.884,0C201.013,157.76,201.013,207.949,170.165,238.797z"/>
</g>
<g transform="translate(288 0)">
<path d="M225.549,112.678h39.852c4.603,0,9.014-1.826,12.266-5.08l30.385-30.383h104.603c9.58,0,17.347-7.766,17.347-17.348
		c0-9.578-7.767-17.346-17.347-17.346H300.866c-4.603,0-9.015,1.826-12.267,5.082l-30.384,30.381h-64.435
		c4.724,3.6,9.244,7.529,13.515,11.799C214.335,96.826,220.417,104.52,225.549,112.678z"/>
</g>
<g transform="translate(336 0)"><path d="M412.654,204.422h-70.152L315.68,189c-2.631-1.512-5.612-2.309-8.646-2.309h-61.325
		c-0.329,11.684-2.198,23.355-5.652,34.691h62.345l26.822,15.424c2.633,1.512,5.614,2.309,8.647,2.309h74.783
		c9.58,0,17.347-7.768,17.347-17.348C430,212.188,422.234,204.422,412.654,204.422z"/>
</g>
<g transform="translate(384 0)">
<path d="M411.883,130.797H235.07c4.773,11.121,7.955,22.805,9.537,34.691h167.276c9.579,0,17.346-7.766,17.346-17.346
		C429.229,138.563,421.462,130.797,411.883,130.797z"/>
</g>
</svg>
